<?xml version="1.0" encoding="UTF-8"?>
<svg width="136px" height="136px" viewBox="0 0 136 136" version="1.1" xmlns="http://www.w3.org/2000/svg" xmlns:xlink="http://www.w3.org/1999/xlink">
    <!-- Generator: Sketch 51.3 (57544) - http://www.bohemiancoding.com/sketch -->
    <title>Group</title>
    <desc>Created with Sketch.</desc>
    <defs></defs>
    <g id="Page-1" stroke="none" stroke-width="1" fill="none" fill-rule="evenodd">
        <g id="Artboard" transform="translate(-886.000000, -386.000000)" fill-rule="nonzero">
            <g id="Group" transform="translate(886.000000, 386.000000)">
                <circle id="Oval-5" fill="#0D3154" cx="68" cy="68" r="68"></circle>
                <path d="M68.06874,83.1560762 L96.5745063,51.9705848 C98.0649749,50.3400026 100.595087,50.2264181 102.225669,51.7168867 C102.231702,51.7224012 102.237718,51.7279342 102.243717,51.7334856 L106.332022,55.5167506 C107.953437,57.0171868 108.05151,59.5479472 106.551074,61.169362 C106.546259,61.1745647 106.541431,61.1797546 106.536589,61.1849316 L71.0315455,99.1458594 C69.5225104,100.759274 66.9912644,100.843891 65.3778493,99.3348561 C65.2990729,99.2611761 65.223309,99.1843399 65.1507434,99.1045359 L30.610258,61.1186434 C29.1559652,59.5192852 29.235467,57.0538558 30.7897791,55.551515 L34.5760046,51.8918888 C36.164432,50.3565733 38.6967259,50.3996291 40.2320413,51.9880565 C40.2686192,52.0258997 40.3044467,52.0644612 40.3395027,52.1037185 L68.06874,83.1560762 Z" id="Path-4" stroke="#FFFFFF" fill="#FFFFFF"></path>
            </g>
        </g>
    </g>
</svg>