<svg xmlns="http://www.w3.org/2000/svg" viewBox="0 0 1197 797">
  <defs><style>.cls-1{fill:none;}.cls-1,.cls-2{stroke:#000;stroke-linecap:round;stroke-linejoin:round;stroke-width:8px;}.cls-2{fill:#3ff;}</style></defs>

  <g id="grass">
    <path class="cls-1" d="M1134.38,929h0Z" transform="translate(-42 -153)"/>
    <polyline class="cls-1" points="1010.43 776 983.95 738.16 963.51 776 946.87 720 930.97 776 918.11 754.06 906 776 829 776 817 754 807 776 791 754 780 771 752 741 734 776 699 776"/>
    <polyline class="cls-1" points="733 793 695 793 666 735 649 788 629 751 614 786 598 735 581 788 490 787"/>
    <polyline class="cls-1" points="522 776 381 776 365 748 351 776 337 748 322 776 242 776 226 748 208 776 192 739 178 776 110 776"/>
    <line class="cls-1" x1="90" y1="776" x2="56" y2="776"/>
    <line class="cls-1" x1="40.01" y1="776" x2="32" y2="776"/>
    <line class="cls-1" x1="1109" y1="776" x2="1143" y2="776"/>
    <line class="cls-1" x1="1159" y1="776" x2="1167" y2="776"/>
  </g>
  <g id="name">
    <path d="M302.31,295V155.4h30.2v115h60V295Z" transform="translate(-42 -153)"/>
    <path d="M443.39,155.4v88.4q0,6.6.5,12.1a25.9,25.9,0,0,0,2.4,9.3,13.51,13.51,0,0,0,5.7,5.9q3.8,2.1,10.4,2.1t10.4-2.1a13.55,13.55,0,0,0,5.7-5.9,26,26,0,0,0,2.4-9.3q.5-5.5.5-12.1V155.4h30v84.4a147.17,147.17,0,0,1-1.9,25.2q-1.9,10.8-7.3,18a32.41,32.41,0,0,1-15,10.8q-9.6,3.6-24.8,3.6t-24.8-3.6a32.41,32.41,0,0,1-15-10.8,41.49,41.49,0,0,1-7.3-18,146.88,146.88,0,0,1-1.9-25.2V155.4Z" transform="translate(-42 -153)"/>
    <path d="M589.05,297.4q-28,0-41.5-18.9t-13.5-53.3q0-34.4,13.5-53.3t41.5-18.9a57.86,57.86,0,0,1,19.1,2.9,41.94,41.94,0,0,1,24.2,20.7,70.9,70.9,0,0,1,6.1,16.6l-28,6.8a75.43,75.43,0,0,0-2.8-9.2,25.15,25.15,0,0,0-4.1-7.2,17.44,17.44,0,0,0-6.2-4.7,21.24,21.24,0,0,0-8.9-1.7q-12.2,0-17.3,9.5t-5.1,26.3v24.4q0,16.8,5.1,26.3t17.3,9.5q10.4,0,15.1-6.4a43.1,43.1,0,0,0,6.9-16.4l28,6.8a70.8,70.8,0,0,1-6.1,16.6,44.31,44.31,0,0,1-9.9,12.7,41.2,41.2,0,0,1-14.3,8.1A59.72,59.72,0,0,1,589.05,297.4Z" transform="translate(-42 -153)"/>
    <path d="M702.67,236.8l-12.4,17.4V295h-30V155.4h30v58.4h1.6l15.2-23.2,24.6-35.2h33.6l-41.8,59,43.8,80.6h-33.8Z" transform="translate(-42 -153)"/>
    <path d="M822.45,295V245.6l-44.2-90.2h33.4l14.8,32.4,10.8,27.4h1.6l10.8-27.4,14.8-32.4h32.2l-44.2,90.2V295Z" transform="translate(-42 -153)"/>
    <path d="M323.91,394.2h-2.2V487h-25.6V347.4h36l31.8,92.8h2.2V347.4h25.6V487h-36Z" transform="translate(-42 -153)"/>
    <path d="M490.71,467.2h-1.8a50.43,50.43,0,0,1-4.4,8.4,30.79,30.79,0,0,1-6.4,7.1,29.41,29.41,0,0,1-8.9,4.9,36.94,36.94,0,0,1-29.6-3,39,39,0,0,1-13.3-14,73,73,0,0,1-8.1-22.4,149.36,149.36,0,0,1-2.7-29.8q0-35.6,13-54.5t40.2-18.9a57,57,0,0,1,19,2.9,41.63,41.63,0,0,1,14.1,8.2,43.82,43.82,0,0,1,9.7,12.7,74.74,74.74,0,0,1,6,16.4l-28,6.8q-1.2-4.4-2.7-8.5a28.3,28.3,0,0,0-3.9-7.3,17.81,17.81,0,0,0-6-5.1,18.68,18.68,0,0,0-8.8-1.9q-11.4,0-16.1,9.4t-4.7,26.4v22.8q0,17,5.1,27.2t18.1,10.2q10.2,0,15.2-6t5-15.4V433.6h-23.8V412.4h50.6V487h-26.8Z" transform="translate(-42 -153)"/>
    <path d="M573,347.4v88.4q0,6.6.5,12.1a25.9,25.9,0,0,0,2.4,9.3,13.51,13.51,0,0,0,5.7,5.9q3.8,2.1,10.4,2.1t10.4-2.1a13.55,13.55,0,0,0,5.7-5.9,26,26,0,0,0,2.4-9.3q.5-5.5.5-12.1V347.4h30v84.4a147.17,147.17,0,0,1-1.9,25.2q-1.9,10.8-7.3,18a32.41,32.41,0,0,1-15,10.8q-9.6,3.6-24.8,3.6t-24.8-3.6a32.41,32.41,0,0,1-15-10.8,41.49,41.49,0,0,1-7.3-18,146.88,146.88,0,0,1-1.9-25.2V347.4Z" transform="translate(-42 -153)"/>
    <path d="M702.43,487V437.6l-44.2-90.2h33.4l14.8,32.4,10.8,27.4h1.6l10.8-27.4,14.8-32.4h32.2l-44.2,90.2V487Z" transform="translate(-42 -153)"/>
    <path d="M796.07,487V347.4h89.2V372h-59.2v32h57.2v24.6h-57.2v33.8h59.2V487Z" transform="translate(-42 -153)"/>
    <path d="M941.32,394.2h-2.2V487h-25.6V347.4h36l31.8,92.8h2.2V347.4h25.6V487h-36Z" transform="translate(-42 -153)"/>
  </g>
  <g id="liner">
    <path d="M296,571.14v-33.5h13.15q4.37,0,6.67,2.52a11.38,11.38,0,0,1,0,13.73q-2.3,2.52-6.67,2.52H298.84v14.74Zm2.88-17.28h10.27a5.39,5.39,0,0,0,5.9-5.71v-2.3a5.38,5.38,0,0,0-5.9-5.66H298.84Z" transform="translate(-42 -153)"/>
    <path d="M341.1,567.26h-.19a7.85,7.85,0,0,1-.91,1.68,5.75,5.75,0,0,1-1.44,1.42,7.78,7.78,0,0,1-2,1,9,9,0,0,1-2.76.38,7.89,7.89,0,0,1-6.14-2.42q-2.21-2.42-2.21-6.94V546.57h2.74v15.26q0,3.79,1.63,5.62a6,6,0,0,0,4.7,1.82,8.93,8.93,0,0,0,2.47-.34,6.78,6.78,0,0,0,2.11-1,4.93,4.93,0,0,0,1.49-1.7,5.07,5.07,0,0,0,.55-2.42V546.57h2.74v24.58H341.1Z" transform="translate(-42 -153)"/>
    <path d="M360.63,571.72a10.83,10.83,0,0,1-9.46-4.7l2-1.58a10.35,10.35,0,0,0,3.36,3,9,9,0,0,0,4.27,1,7,7,0,0,0,4.37-1.2,4.66,4.66,0,0,0,.36-6.55,7,7,0,0,0-3.86-1.51l-2-.34a16.61,16.61,0,0,1-3.07-.72,7.49,7.49,0,0,1-2.38-1.3,5.69,5.69,0,0,1-1.54-2,7.52,7.52,0,0,1,.1-5.88,6.24,6.24,0,0,1,1.75-2.16,7.54,7.54,0,0,1,2.64-1.3,12.19,12.19,0,0,1,3.31-.43,10.61,10.61,0,0,1,5,1.06,11.2,11.2,0,0,1,3.36,2.74l-1.82,1.68a10.31,10.31,0,0,0-2.57-2.14,7.87,7.87,0,0,0-4.15-1,6.49,6.49,0,0,0-4.1,1.15,3.91,3.91,0,0,0-1.46,3.26,3.6,3.6,0,0,0,1.32,3.12,9.37,9.37,0,0,0,4,1.39l2,.29a10.41,10.41,0,0,1,5.54,2.23,6,6,0,0,1,1.8,4.63A6.58,6.58,0,0,1,367,569.8,9.78,9.78,0,0,1,360.63,571.72Z" transform="translate(-42 -153)"/>
    <path d="M377.26,535.62H380v14.83h.14a7.59,7.59,0,0,1,2.54-3.19,9.1,9.1,0,0,1,10.82,1.15q2.18,2.42,2.18,6.94v15.79H393V555.83q0-3.74-1.61-5.57a5.91,5.91,0,0,0-4.68-1.82,9.22,9.22,0,0,0-2.5.34,6.77,6.77,0,0,0-2.14,1,4.85,4.85,0,0,0-2,4.08v17.28h-2.74Z" transform="translate(-42 -153)"/>
    <path d="M406.31,539.9a1.87,1.87,0,0,1-1.42-.48,1.74,1.74,0,0,1-.46-1.25v-.48a1.74,1.74,0,0,1,.46-1.25,2.33,2.33,0,0,1,2.83,0,1.74,1.74,0,0,1,.46,1.25v.48a1.74,1.74,0,0,1-.46,1.25A1.88,1.88,0,0,1,406.31,539.9ZM405,546.57h2.74v24.58H405Z" transform="translate(-42 -153)"/>
    <path d="M417.23,571.14V546.57H420v3.89h.14a7.59,7.59,0,0,1,2.54-3.19,9.1,9.1,0,0,1,10.82,1.15q2.18,2.42,2.18,6.94v15.79h-2.74V555.83q0-3.74-1.61-5.57a5.91,5.91,0,0,0-4.68-1.82,9.22,9.22,0,0,0-2.5.34,6.77,6.77,0,0,0-2.14,1,4.85,4.85,0,0,0-2,4.08v17.28Z" transform="translate(-42 -153)"/>
    <path d="M465,574a6,6,0,0,1-3,5.52q-3,1.78-8.81,1.78-5.62,0-8.11-1.63a5.11,5.11,0,0,1-2.5-4.51,4.89,4.89,0,0,1,1.1-3.36,6.39,6.39,0,0,1,3.12-1.82v-.38a3.69,3.69,0,0,1-1.1-6.14,8.07,8.07,0,0,1,3-1.44v-.19a7.4,7.4,0,0,1-3.36-2.88,8.51,8.51,0,0,1-1.2-4.61,9,9,0,0,1,.62-3.41,7.38,7.38,0,0,1,1.8-2.64,8.12,8.12,0,0,1,2.83-1.7,10.71,10.71,0,0,1,3.67-.6,9.84,9.84,0,0,1,4.94,1.2V546a2.8,2.8,0,0,1,.53-1.77,2.05,2.05,0,0,1,1.73-.68h4.22v2.35h-5v2.35a7.47,7.47,0,0,1,1.92,2.66,8.6,8.6,0,0,1,.67,3.43,8.68,8.68,0,0,1-.65,3.41,7.8,7.8,0,0,1-4.66,4.39,10.71,10.71,0,0,1-3.67.6,8.45,8.45,0,0,1-1.3-.1l-1.25-.19a8.08,8.08,0,0,0-2.62,1.18,2.33,2.33,0,0,0-1,2q0,2.21,3.94,2.21h5.71q4.46,0,6.46,1.66A5.59,5.59,0,0,1,465,574Zm-2.64.19a3.43,3.43,0,0,0-1.27-2.81q-1.27-1-4.54-1h-8a5.5,5.5,0,0,0-2.5,1.58,3.89,3.89,0,0,0-.91,2.64,3.94,3.94,0,0,0,1.58,3.19,7.59,7.59,0,0,0,4.8,1.27h3.07a11.49,11.49,0,0,0,5.66-1.18A3.93,3.93,0,0,0,462.41,574.22Zm-9.26-13.68a6.49,6.49,0,0,0,4.44-1.42,5.06,5.06,0,0,0,1.61-4v-1.54a5,5,0,0,0-1.61-4,7.71,7.71,0,0,0-8.9,0,5,5,0,0,0-1.58,4v1.54a5.06,5.06,0,0,0,1.61,4A6.49,6.49,0,0,0,453.14,560.54Z" transform="translate(-42 -153)"/>
    <path d="M485.93,546.57h2.74v3.94h.14a7.43,7.43,0,0,1,2.78-3.29,8.42,8.42,0,0,1,4.7-1.22,9,9,0,0,1,7.44,3.36q2.69,3.36,2.69,9.5t-2.69,9.5a9,9,0,0,1-7.44,3.36,7.71,7.71,0,0,1-7.49-4.51h-.14v13.54h-2.74Zm9.74,22.7a7.26,7.26,0,0,0,5.76-2.35,9.27,9.27,0,0,0,2.06-6.34v-3.46a9.27,9.27,0,0,0-2.06-6.34,7.26,7.26,0,0,0-5.76-2.35,8.84,8.84,0,0,0-2.71.41,7.5,7.5,0,0,0-2.23,1.13,5.35,5.35,0,0,0-1.51,1.73,4.53,4.53,0,0,0-.55,2.21v9.74a4.85,4.85,0,0,0,.55,2.33,5.52,5.52,0,0,0,1.51,1.78,6.81,6.81,0,0,0,2.23,1.13A9.3,9.3,0,0,0,495.67,569.27Z" transform="translate(-42 -153)"/>
    <path d="M515.87,539.9a1.87,1.87,0,0,1-1.42-.48,1.74,1.74,0,0,1-.46-1.25v-.48a1.74,1.74,0,0,1,.46-1.25,2.33,2.33,0,0,1,2.83,0,1.74,1.74,0,0,1,.46,1.25v.48a1.74,1.74,0,0,1-.46,1.25A1.88,1.88,0,0,1,515.87,539.9Zm-1.34,6.67h2.74v24.58h-2.74Z" transform="translate(-42 -153)"/>
    <path d="M524.13,571.14l9.12-12.38-8.78-12.19h3.22l7,10h.14l7.15-10h3.07l-8.74,12,9,12.58h-3.22l-7.25-10.37h-.1l-7.54,10.37Z" transform="translate(-42 -153)"/>
    <path d="M560.17,571.72a11,11,0,0,1-4.44-.86,9.3,9.3,0,0,1-3.41-2.52,11.29,11.29,0,0,1-2.16-4.06,18.28,18.28,0,0,1-.74-5.42,18,18,0,0,1,.74-5.4,11.3,11.3,0,0,1,2.16-4,9.58,9.58,0,0,1,3.38-2.54,10.62,10.62,0,0,1,4.42-.89,10,10,0,0,1,4.27.89,9.41,9.41,0,0,1,3.26,2.48,11.47,11.47,0,0,1,2.09,3.83,15.61,15.61,0,0,1,.74,4.94v1.3H552.3v1.2a10.78,10.78,0,0,0,.55,3.53,7.92,7.92,0,0,0,1.58,2.76,7.19,7.19,0,0,0,2.52,1.8,8.34,8.34,0,0,0,3.36.65,7.45,7.45,0,0,0,7.44-4.94l2,1.33a9.53,9.53,0,0,1-3.62,4.34A10.66,10.66,0,0,1,560.17,571.72Zm0-23.38a7.76,7.76,0,0,0-3.22.65,7.3,7.3,0,0,0-2.47,1.8,7.92,7.92,0,0,0-1.58,2.76,10.79,10.79,0,0,0-.55,3.53v.24h15.22v-.38a11.28,11.28,0,0,0-.53-3.53,7.58,7.58,0,0,0-1.51-2.71,7,7,0,0,0-2.35-1.73A7.15,7.15,0,0,0,560.12,548.34Z" transform="translate(-42 -153)"/>
    <path d="M581.39,571.14a3,3,0,0,1-2.26-.82,3,3,0,0,1-.77-2.16V535.62h2.74v33.17h3.79v2.35Z" transform="translate(-42 -153)"/>
    <path d="M599.74,571.72a10.83,10.83,0,0,1-9.46-4.7l2-1.58a10.35,10.35,0,0,0,3.36,3,9,9,0,0,0,4.27,1,7,7,0,0,0,4.37-1.2,4.66,4.66,0,0,0,.36-6.55,7,7,0,0,0-3.86-1.51l-2-.34a16.61,16.61,0,0,1-3.07-.72,7.49,7.49,0,0,1-2.38-1.3,5.69,5.69,0,0,1-1.54-2,7.52,7.52,0,0,1,.1-5.88,6.24,6.24,0,0,1,1.75-2.16,7.54,7.54,0,0,1,2.64-1.3,12.19,12.19,0,0,1,3.31-.43,10.61,10.61,0,0,1,5,1.06,11.2,11.2,0,0,1,3.36,2.74l-1.82,1.68a10.31,10.31,0,0,0-2.57-2.14,7.87,7.87,0,0,0-4.15-1,6.49,6.49,0,0,0-4.1,1.15,3.91,3.91,0,0,0-1.46,3.26,3.6,3.6,0,0,0,1.32,3.12,9.37,9.37,0,0,0,4,1.39l2,.29a10.41,10.41,0,0,1,5.54,2.23,6,6,0,0,1,1.8,4.63,6.58,6.58,0,0,1-2.33,5.38A9.78,9.78,0,0,1,599.74,571.72Z" transform="translate(-42 -153)"/>
    <path d="M628.44,546.57h2.69L637,568.7h.1l6.53-22.13h2.54l6.58,22.13h.1l5.86-22.13h2.64l-6.91,24.58H651.1l-6.19-20.69h-.1l-6.14,20.69h-3.31Z" transform="translate(-42 -153)"/>
    <path d="M669.77,539.9a1.87,1.87,0,0,1-1.42-.48,1.74,1.74,0,0,1-.46-1.25v-.48a1.74,1.74,0,0,1,.46-1.25,2.33,2.33,0,0,1,2.83,0,1.74,1.74,0,0,1,.46,1.25v.48a1.74,1.74,0,0,1-.46,1.25A1.88,1.88,0,0,1,669.77,539.9Zm-1.34,6.67h2.74v24.58h-2.74Z" transform="translate(-42 -153)"/>
    <path d="M685.4,571.14a3,3,0,0,1-2.26-.82,3.1,3.1,0,0,1-.77-2.21V548.92H678.1v-2.35h2.78a1.79,1.79,0,0,0,1.37-.41,2.24,2.24,0,0,0,.36-1.46v-5h2.5v6.86h5.57v2.35h-5.57v19.87h5.18v2.35Z" transform="translate(-42 -153)"/>
    <path d="M698,535.62h2.74v14.83h.14a7.59,7.59,0,0,1,2.54-3.19,9.1,9.1,0,0,1,10.82,1.15q2.19,2.42,2.18,6.94v15.79h-2.74V555.83q0-3.74-1.61-5.57a5.91,5.91,0,0,0-4.68-1.82,9.23,9.23,0,0,0-2.5.34,6.76,6.76,0,0,0-2.13,1,4.85,4.85,0,0,0-2,4.08v17.28H698Z" transform="translate(-42 -153)"/>
    <path d="M757.52,571.14a2.92,2.92,0,0,1-2.3-.82,3.61,3.61,0,0,1-.82-2.21v-.86h-.24a6.72,6.72,0,0,1-2.69,3.26,10.23,10.23,0,0,1-10.75-.7,6.86,6.86,0,0,1-2.11-5.37,6.4,6.4,0,0,1,2.33-5.2q2.33-1.93,7.66-1.93h5.66v-2.88q0-6.1-6.29-6.1a7,7,0,0,0-6.72,4l-1.73-1.43a8.54,8.54,0,0,1,3.1-3.53,9.71,9.71,0,0,1,5.45-1.38q4.32,0,6.62,2.17a7.91,7.91,0,0,1,2.3,6.06v14.58h3.31v2.35Zm-10.42-1.78a9.73,9.73,0,0,0,2.78-.38,7.7,7.7,0,0,0,2.28-1.09,5.13,5.13,0,0,0,1.54-1.69,4.54,4.54,0,0,0,.55-2.24v-4.58H748.5q-3.7,0-5.35,1.18a3.78,3.78,0,0,0-1.66,3.25V565a3.79,3.79,0,0,0,1.54,3.28A6.82,6.82,0,0,0,747.1,569.37Z" transform="translate(-42 -153)"/>
    <path d="M781.57,546.57h2.74v3.94h.14a7.43,7.43,0,0,1,2.78-3.29,8.42,8.42,0,0,1,4.7-1.22,9,9,0,0,1,7.44,3.36q2.69,3.36,2.69,9.5t-2.69,9.5a9,9,0,0,1-7.44,3.36,7.71,7.71,0,0,1-7.49-4.51h-.14v13.54h-2.74Zm9.74,22.7a7.26,7.26,0,0,0,5.76-2.35,9.27,9.27,0,0,0,2.06-6.34v-3.46a9.27,9.27,0,0,0-2.06-6.34,7.26,7.26,0,0,0-5.76-2.35,8.84,8.84,0,0,0-2.71.41,7.5,7.5,0,0,0-2.23,1.13,5.36,5.36,0,0,0-1.51,1.73,4.54,4.54,0,0,0-.55,2.21v9.74a4.86,4.86,0,0,0,.55,2.33,5.52,5.52,0,0,0,1.51,1.78,6.81,6.81,0,0,0,2.23,1.13A9.31,9.31,0,0,0,791.31,569.27Z" transform="translate(-42 -153)"/>
    <path d="M825.6,567.26h-.19a7.91,7.91,0,0,1-.91,1.68,5.75,5.75,0,0,1-1.44,1.42,7.8,7.8,0,0,1-2,1,9,9,0,0,1-2.76.38,7.89,7.89,0,0,1-6.14-2.42q-2.21-2.42-2.21-6.94V546.57h2.74v15.26q0,3.79,1.63,5.62a6,6,0,0,0,4.71,1.82,8.92,8.92,0,0,0,2.47-.34,6.78,6.78,0,0,0,2.11-1,5,5,0,0,0,1.49-1.7,5.07,5.07,0,0,0,.55-2.42V546.57h2.74v24.58H825.6Z" transform="translate(-42 -153)"/>
    <path d="M837.86,571.14V546.57h2.74V551h.19a7.64,7.64,0,0,1,2.45-3.07,7.82,7.82,0,0,1,4.9-1.34h1.63v2.69h-2.16a8.76,8.76,0,0,0-5,1.34,4.28,4.28,0,0,0-2,3.74v16.8Z" transform="translate(-42 -153)"/>
    <path d="M856.43,546.57h2.74v3.94h.14a7.43,7.43,0,0,1,2.78-3.29,8.42,8.42,0,0,1,4.7-1.22,9,9,0,0,1,7.44,3.36q2.69,3.36,2.69,9.5t-2.69,9.5a9,9,0,0,1-7.44,3.36,7.71,7.71,0,0,1-7.49-4.51h-.14v13.54h-2.74Zm9.74,22.7a7.26,7.26,0,0,0,5.76-2.35,9.26,9.26,0,0,0,2.06-6.34v-3.46a9.26,9.26,0,0,0-2.06-6.34,7.26,7.26,0,0,0-5.76-2.35,8.84,8.84,0,0,0-2.71.41,7.5,7.5,0,0,0-2.23,1.13,5.35,5.35,0,0,0-1.51,1.73,4.53,4.53,0,0,0-.55,2.21v9.74a4.85,4.85,0,0,0,.55,2.33,5.51,5.51,0,0,0,1.51,1.78,6.81,6.81,0,0,0,2.23,1.13A9.31,9.31,0,0,0,866.18,569.27Z" transform="translate(-42 -153)"/>
    <path d="M894.23,571.72a10.87,10.87,0,0,1-4.42-.86,9.13,9.13,0,0,1-3.36-2.52,11.81,11.81,0,0,1-2.16-4.06,17.77,17.77,0,0,1-.77-5.42,17.55,17.55,0,0,1,.77-5.4,11.82,11.82,0,0,1,2.16-4,9.36,9.36,0,0,1,3.36-2.54,11.42,11.42,0,0,1,8.83,0,9.36,9.36,0,0,1,3.36,2.54,11.84,11.84,0,0,1,2.16,4,17.55,17.55,0,0,1,.77,5.4,17.77,17.77,0,0,1-.77,5.42,11.82,11.82,0,0,1-2.16,4.06,9.14,9.14,0,0,1-3.36,2.52A10.87,10.87,0,0,1,894.23,571.72Zm0-2.45a7.37,7.37,0,0,0,5.69-2.26q2.09-2.26,2.09-6.62v-3.07q0-4.32-2.09-6.6a8.27,8.27,0,0,0-11.38,0q-2.09,2.26-2.09,6.62v3.07q0,4.32,2.09,6.6A7.33,7.33,0,0,0,894.23,569.27Z" transform="translate(-42 -153)"/>
    <path d="M920,571.72a10.83,10.83,0,0,1-9.46-4.7l2-1.58a10.35,10.35,0,0,0,3.36,3,9,9,0,0,0,4.27,1,7,7,0,0,0,4.37-1.2,4.66,4.66,0,0,0,.36-6.55A7,7,0,0,0,921,560.1l-2-.34a16.63,16.63,0,0,1-3.07-.72,7.51,7.51,0,0,1-2.38-1.3,5.68,5.68,0,0,1-1.54-2,7.51,7.51,0,0,1,.1-5.88,6.25,6.25,0,0,1,1.75-2.16,7.53,7.53,0,0,1,2.64-1.3,12.19,12.19,0,0,1,3.31-.43,10.61,10.61,0,0,1,5,1.06,11.19,11.19,0,0,1,3.36,2.74l-1.82,1.68a10.32,10.32,0,0,0-2.57-2.14,7.87,7.87,0,0,0-4.15-1,6.49,6.49,0,0,0-4.1,1.15,3.91,3.91,0,0,0-1.46,3.26,3.6,3.6,0,0,0,1.32,3.12,9.37,9.37,0,0,0,4,1.39l2,.29a10.41,10.41,0,0,1,5.54,2.23,6,6,0,0,1,1.8,4.63,6.58,6.58,0,0,1-2.33,5.38A9.78,9.78,0,0,1,920,571.72Z" transform="translate(-42 -153)"/>
    <path d="M945.94,571.72a11,11,0,0,1-4.44-.86,9.29,9.29,0,0,1-3.41-2.52,11.28,11.28,0,0,1-2.16-4.06,18.26,18.26,0,0,1-.74-5.42,18,18,0,0,1,.74-5.4,11.3,11.3,0,0,1,2.16-4,9.58,9.58,0,0,1,3.38-2.54,10.62,10.62,0,0,1,4.42-.89,10,10,0,0,1,4.27.89,9.4,9.4,0,0,1,3.26,2.48,11.48,11.48,0,0,1,2.09,3.83,15.62,15.62,0,0,1,.74,4.94v1.3H938.07v1.2a10.79,10.79,0,0,0,.55,3.53,7.94,7.94,0,0,0,1.58,2.76,7.2,7.2,0,0,0,2.52,1.8,8.34,8.34,0,0,0,3.36.65,7.45,7.45,0,0,0,7.44-4.94l2,1.33a9.52,9.52,0,0,1-3.62,4.34A10.65,10.65,0,0,1,945.94,571.72Zm0-23.38a7.75,7.75,0,0,0-3.22.65,7.31,7.31,0,0,0-2.47,1.8,7.93,7.93,0,0,0-1.58,2.76,10.8,10.8,0,0,0-.55,3.53v.24h15.22v-.38a11.28,11.28,0,0,0-.53-3.53,7.59,7.59,0,0,0-1.51-2.71,7,7,0,0,0-2.35-1.73A7.15,7.15,0,0,0,945.89,548.34Z" transform="translate(-42 -153)"/>
    <path d="M965.71,571.58A2.28,2.28,0,0,1,964,571a2.21,2.21,0,0,1-.55-1.56v-.53a2.22,2.22,0,0,1,.55-1.56,2.82,2.82,0,0,1,3.48,0,2.16,2.16,0,0,1,.58,1.56v.53a2.16,2.16,0,0,1-.58,1.56A2.29,2.29,0,0,1,965.71,571.58Z" transform="translate(-42 -153)"/>
  </g>
    <g id="clouds">
      <path class="cls-1" id="cloud1" d="M1235,602h-45l-5.44-15.48c-11.14-31.71-56-31.71-67.12,0L1112,602l-.1-6.46c-11.19-23.37-45.16-21.18-53.26,3.44h0a18.89,18.89,0,0,1-15.45,8H1042" transform="translate(-42 -153)">
        <animateTransform
            attributeName="transform"
            type="translate"
            from="-42 -153"
            to="-122 -153"
            dur="3s"
            repeatCount="indefinite"
            values="-42,-153;-122,-153;-42,-153"
          />
        </path>
      <path class="cls-1" id="cloud2" d="M239,446H194l-5.44-15.48c-11.14-31.71-56-31.71-67.12,0L116,446l-.1-6.46c-11.19-23.37-45.16-21.18-53.26,3.44h0a18.89,18.89,0,0,1-15.45,8H46" transform="translate(-42 -153)">
        <animateTransform
            attributeName="transform"
            type="translate"
            from="-42 -153"
            to="62 -153"
            dur="3s"
            repeatCount="indefinite"
            values="-42,-153;62,-153;-42,-153"
          />
      </path>
      <path class="cls-1" id="cloud3" d="M494,747H449l-5.44-15.48c-11.14-31.71-56-31.71-67.12,0L371,747H353" transform="translate(-42 -153)">
        <animateTransform
            attributeName="transform"
            type="translate"
            from="-42 -153"
            to="62 -153"
            dur="3s"
            repeatCount="indefinite"
            values="-42,-153;62,-153;-42,-153"
          />
      </path>
    </g>
  <g id="flower3">
    <g id="flowerhead3">
      <path class="cls-1" d="M1106.94,761.41l2.79-2.68c9.38-9,10.91-25.06,3.44-36.11l-4.49-6.64" transform="translate(-42 -153)"/>
      <path class="cls-1" d="M1108.22,761.45l-2.44-2.81c-8.22-9.45-8.88-25.54-1.49-36.23l4.44-6.43" transform="translate(-42 -153)"/>
      <path class="cls-1" d="M1115,762.67l3.85-.42c12.94-1.4,24-13.16,24.79-26.48l.51-8" transform="translate(-42 -153)"/>
      <path class="cls-1" d="M1116,763.47l-.22-3.72c-.73-12.5,8.58-25.64,21-29.59l7.44-2.37" transform="translate(-42 -153)"/>
      <path class="cls-1" d="M1117.78,770l3.05,2.38c10.27,8,26.36,7.22,36.23-1.75l5.93-5.39" transform="translate(-42 -153)"/>
      <path class="cls-1" d="M1117.93,771.28l2.43-2.82c8.17-9.48,24-12.44,35.64-6.65l7,3.48" transform="translate(-42 -153)"/>
      <path class="cls-1" d="M1115.94,778.47l.39,3.85c1.3,13,13,24.05,26.28,25l8,.57" transform="translate(-42 -153)"/>
      <path class="cls-1" d="M1115.13,779.46l3.72-.19c12.5-.63,25.57,8.78,29.42,21.2l2.31,7.46" transform="translate(-42 -153)"/>
      <path class="cls-1" d="M1109.09,783.19l-2.62,2.84c-8.83,9.56-9.4,25.66-1.28,36.25l4.88,6.36" transform="translate(-42 -153)"/>
      <path class="cls-1" d="M1107.81,783.24l2.61,2.66c8.77,8.94,10.39,25,3.65,36.07l-4.05,6.68" transform="translate(-42 -153)"/>
      <path class="cls-1" d="M1100,780.08l-3.77.41c-12.7,1.38-23.5,12.92-24.33,26l-.5,7.85" transform="translate(-42 -153)"/>
      <path class="cls-1" d="M1099,779.29l.21,3.65c.72,12.26-8.42,25.16-20.57,29l-7.3,2.33" transform="translate(-42 -153)"/>
      <path class="cls-1" d="M1097.32,772.66l-2.66-2.71c-8.94-9.12-24.69-10.45-35.46-3l-6.47,4.47" transform="translate(-42 -153)"/>
      <path class="cls-1" d="M1097.33,771.41l-2.73,2.43c-9.18,8.16-25,9-35.53,1.83l-6.35-4.29" transform="translate(-42 -153)"/>
      <path class="cls-1" d="M1100.36,763.94l-.38-3.78c-1.28-12.71-12.73-23.6-25.78-24.53l-7.85-.56" transform="translate(-42 -153)"/>
      <path class="cls-1" d="M1101.16,763l-3.65.19c-12.27.62-25.09-8.61-28.86-20.8l-2.27-7.32" transform="translate(-42 -153)"/>
      <circle class="cls-2" cx="1107.65" cy="772" r="13.12" transform="translate(267.02 1707.61) rotate(-88.61)"/>
      <animateTransform attributeName="transform" type="rotate" from="0 0 0" to="360 0 0" dur="1s" repeatDur="indefinite" additive="sum"/>
    </g>
    <path class="cls-1" d="M1108.29,926l.32-96.69Z" transform="translate(-42 -153)"/>
    <path class="cls-1" d="M1108.67,878.08c3.45-2.2,3.53-10.74,7-12.94s19.67-4.37,23-6.5c-3.24,2.06-10.76,17.85-14,19.91C1121.11,880.82,1112.24,875.81,1108.67,878.08Z" transform="translate(-42 -153)"/>
    <path class="cls-1" d="M1108.62,867.83c-3.47-2.17-3.63-10.71-7.1-12.88s-19.7-4.2-23.08-6.3c3.26,2,10.91,17.75,14.17,19.79C1096.21,870.68,1105,865.6,1108.62,867.83Z" transform="translate(-42 -153)"/>
  </g>
  <g id="flower2">
    <path class="cls-1" d="M748.81,924l.26-103Z" transform="translate(-42 -153)"/>
    <path class="cls-1" d="M748.59,894.4c2.8-1.78,2.86-8.71,5.67-10.49s15.95-3.54,18.67-5.27c-2.63,1.67-8.72,14.47-11.35,16.14C758.68,896.62,751.49,892.56,748.59,894.4Z" transform="translate(-42 -153)"/>
    <path class="cls-1" d="M748.56,886.1c-2.82-1.76-2.94-8.68-5.76-10.44s-16-3.4-18.71-5.11c2.64,1.65,8.85,14.39,11.49,16C738.49,888.4,745.65,884.28,748.56,886.1Z" transform="translate(-42 -153)"/>
    <g id="flowerhead2">
      <path class="cls-1" d="M746.55,766.56l2.26-2.17c7.61-7.31,8.85-20.32,2.79-29.28L748,729.73" transform="translate(-42 -153)"/>
      <path class="cls-1" d="M747.59,766.59l-2-2.28c-6.66-7.66-7.2-20.7-1.21-29.37l3.6-5.21" transform="translate(-42 -153)"/>
      <path class="cls-1" d="M753.09,767.58l3.12-.34c10.49-1.14,19.42-10.67,20.1-21.47l.41-6.49" transform="translate(-42 -153)"/>
      <path class="cls-1" d="M753.9,768.23l-.18-3c-.59-10.13,7-20.79,17-24l6-1.92" transform="translate(-42 -153)"/>
      <path class="cls-1" d="M755.33,773.53l2.47,1.93c8.32,6.49,21.37,5.86,29.37-1.42l4.81-4.37" transform="translate(-42 -153)"/>
      <path class="cls-1" d="M755.46,774.56l2-2.29c6.63-7.69,19.46-10.08,28.9-5.39L792,769.7" transform="translate(-42 -153)"/>
      <path class="cls-1" d="M753.85,780.4l.31,3.12c1.05,10.5,10.52,19.5,21.31,20.27l6.49.46" transform="translate(-42 -153)"/>
      <path class="cls-1" d="M753.18,781.2l3-.15c10.14-.51,20.73,7.12,23.85,17.18l1.88,6.05" transform="translate(-42 -153)"/>
      <path class="cls-1" d="M748.29,784.22l-2.13,2.3c-7.16,7.75-7.62,20.81-1,29.39l4,5.16" transform="translate(-42 -153)"/>
      <path class="cls-1" d="M747.25,784.25l2.11,2.15c7.11,7.25,8.42,20.24,3,29.25L749,821.07" transform="translate(-42 -153)"/>
      <path class="cls-1" d="M740.93,781.7l-3.06.33c-10.29,1.12-19.05,10.47-19.72,21.06l-.4,6.37" transform="translate(-42 -153)"/>
      <path class="cls-1" d="M740.14,781.06l.17,3c.58,9.94-6.82,20.4-16.68,23.54l-5.92,1.89" transform="translate(-42 -153)"/>
      <path class="cls-1" d="M738.74,775.68l-2.16-2.2c-7.25-7.39-20-8.48-28.75-2.44l-5.25,3.63" transform="translate(-42 -153)"/>
      <path class="cls-1" d="M738.76,774.66l-2.21,2c-7.45,6.62-20.24,7.27-28.81,1.48l-5.15-3.48" transform="translate(-42 -153)"/>
      <path class="cls-1" d="M741.21,768.61l-.31-3.06c-1-10.3-10.32-19.14-20.91-19.89l-6.36-.45" transform="translate(-42 -153)"/>
      <path class="cls-1" d="M741.86,767.83l-3,.15c-9.95.5-20.34-7-23.4-16.86l-1.84-5.94" transform="translate(-42 -153)"/>
      <circle class="cls-2" cx="747.12" cy="775.15" r="10.64" transform="translate(-87.91 1350.26) rotate(-88.61)"/>
    </g>
  </g>
  <g id="flower1">
    <g id="flowerhead1">
      <path class="cls-1" d="M292.94,764.41l2.79-2.68c9.38-9,10.91-25.06,3.44-36.11L294.68,719" transform="translate(-42 -153)"/>
      <path class="cls-1" d="M294.22,764.45l-2.44-2.81c-8.22-9.45-8.88-25.54-1.49-36.23l4.44-6.43" transform="translate(-42 -153)"/>
      <path class="cls-1" d="M301,765.67l3.85-.42c12.94-1.4,24-13.16,24.79-26.48l.51-8" transform="translate(-42 -153)"/>
      <path class="cls-1" d="M302,766.47l-.22-3.72c-.73-12.5,8.58-25.64,21-29.59l7.44-2.37" transform="translate(-42 -153)"/>
      <path class="cls-1" d="M303.78,773l3.05,2.38c10.27,8,26.36,7.22,36.23-1.75l5.93-5.39" transform="translate(-42 -153)"/>
      <path class="cls-1" d="M303.93,774.28l2.43-2.82c8.17-9.48,24-12.44,35.64-6.65l7,3.48" transform="translate(-42 -153)"/>
      <path class="cls-1" d="M301.94,781.47l.39,3.85c1.3,13,13,24.05,26.28,25l8,.57" transform="translate(-42 -153)"/>
      <path class="cls-1" d="M301.13,782.46l3.72-.19c12.5-.63,25.57,8.78,29.42,21.2l2.31,7.46" transform="translate(-42 -153)"/>
      <path class="cls-1" d="M295.09,786.19,292.47,789c-8.83,9.56-9.4,25.66-1.28,36.25l4.88,6.36" transform="translate(-42 -153)"/>
      <path class="cls-1" d="M293.81,786.24l2.61,2.66c8.77,8.94,10.39,25,3.65,36.07L296,831.65" transform="translate(-42 -153)"/>
      <path class="cls-1" d="M286,783.08l-3.77.41c-12.7,1.38-23.5,12.92-24.33,26l-.5,7.85" transform="translate(-42 -153)"/>
      <path class="cls-1" d="M285,782.29l.21,3.65c.72,12.26-8.42,25.16-20.57,29l-7.3,2.33" transform="translate(-42 -153)"/>
      <path class="cls-1" d="M283.32,775.66,280.66,773c-8.94-9.12-24.69-10.45-35.46-3l-6.47,4.47" transform="translate(-42 -153)"/>
      <path class="cls-1" d="M283.33,774.41l-2.73,2.43c-9.18,8.16-25,9-35.53,1.83l-6.35-4.29" transform="translate(-42 -153)"/>
      <path class="cls-1" d="M286.36,766.94l-.38-3.78c-1.28-12.71-12.73-23.6-25.78-24.53l-7.85-.56" transform="translate(-42 -153)"/>
      <path class="cls-1" d="M287.16,766l-3.65.19c-12.27.62-25.09-8.61-28.86-20.8L252.37,738" transform="translate(-42 -153)"/>
      <circle class="cls-2" cx="293.65" cy="775" r="13.12" transform="translate(-530.25 896.78) rotate(-88.61)"/>
    </g>
    <path class="cls-1" d="M294.29,929l.32-96.69Z" transform="translate(-42 -153)"/>
    <path class="cls-1" d="M294.67,881.08c3.45-2.2,3.53-10.74,7-12.94s19.67-4.37,23-6.5c-3.24,2.06-10.76,17.85-14,19.91C307.11,883.82,298.24,878.81,294.67,881.08Z" transform="translate(-42 -153)"/>
    <path class="cls-1" d="M294.62,870.83c-3.47-2.17-3.63-10.71-7.1-12.88s-19.7-4.2-23.08-6.3c3.26,2,10.91,17.75,14.17,19.79C282.21,873.68,291,868.6,294.62,870.83Z" transform="translate(-42 -153)"/>
  </g>
</svg>
