<?xml version="1.0" encoding="UTF-8"?>
<svg width="379px" height="507px" viewBox="0 0 379 507" version="1.1" xmlns="http://www.w3.org/2000/svg" xmlns:xlink="http://www.w3.org/1999/xlink">
    <!-- Generator: Sketch 51.3 (57544) - http://www.bohemiancoding.com/sketch -->
    <title>Group 3</title>
    <desc>Created with Sketch.</desc>
    <defs>
        <linearGradient x1="50%" y1="136.031311%" x2="51.8500801%" y2="46.2497522%" id="linearGradient-1">
            <stop stop-color="#FFFBE2" offset="0%"></stop>
            <stop stop-color="#3F2004" offset="100%"></stop>
        </linearGradient>
        <linearGradient x1="50%" y1="38.9741258%" x2="10.1508795%" y2="100%" id="linearGradient-2">
            <stop stop-color="#5BD8BE" offset="0%"></stop>
            <stop stop-color="#0CA686" offset="100%"></stop>
        </linearGradient>
        <linearGradient x1="37.3812649%" y1="50%" x2="100%" y2="92.2969148%" id="linearGradient-3">
            <stop stop-color="#4ACDB2" offset="0%"></stop>
            <stop stop-color="#13AA8A" offset="100%"></stop>
        </linearGradient>
        <linearGradient x1="69.8201964%" y1="50%" x2="7.54167656%" y2="15.1706213%" id="linearGradient-4">
            <stop stop-color="#51D1B7" offset="0%"></stop>
            <stop stop-color="#1AAE8F" offset="100%"></stop>
        </linearGradient>
        <linearGradient x1="50%" y1="60.2365086%" x2="92.6326195%" y2="0%" id="linearGradient-5">
            <stop stop-color="#5BD8BE" offset="0%"></stop>
            <stop stop-color="#19AE8F" offset="100%"></stop>
        </linearGradient>
    </defs>
    <g id="Page-1" stroke="none" stroke-width="1" fill="none" fill-rule="evenodd">
        <g id="Artboard" transform="translate(-151.000000, -829.000000)" fill-rule="nonzero">
            <g id="Group-3" transform="translate(150.000000, 808.000000)">
                <g id="Group-2" transform="translate(190.000000, 347.500000) scale(-1, 1) translate(-190.000000, -347.500000) translate(0.000000, 167.000000)">
                    <path d="M185.907409,359.662951 C223.752902,359.662951 326.357676,363.445215 353.396085,344.913669 C404.018264,310.218312 363.951679,234.339922 363.951679,169.600485 C363.951679,70.2823036 294.608449,0 185.907409,0 C77.2063691,0 8.19748247,70.2823036 8.19748247,169.600485 C8.19748247,230.252129 -18.8860599,309.370532 25.9083191,344.913669 C54.4655595,367.573072 143.587938,359.662951 185.907409,359.662951 Z" id="Oval-3" fill="url(#linearGradient-1)"></path>
                    <path d="M187,328.181391 C274.813275,328.181391 339.804069,257.977265 339.804069,174.090696 C339.804069,90.2041257 274.813275,20 187,20 C99.1867248,20 34.5741143,88.0035012 34.5741143,171.890071 C34.5741143,255.776641 99.1867248,328.181391 187,328.181391 Z" id="Combined-Shape" fill="#FFE1B3"></path>
                    <path d="M337.025108,200.623842 C333.051986,224.256593 323.841029,246.176923 310.467667,264.943343 C309.320113,264.980943 308.163927,265 307,265 C273.862915,265 247,249.553824 247,230.5 C247,211.446176 273.862915,196 307,196 C317.93898,196 328.194235,197.68324 337.025108,200.623842 Z" id="Combined-Shape" fill-opacity="0.29" fill="#F68C8C"></path>
                    <path d="M62.9621006,264.908919 C49.6040612,246.211879 40.2772405,224.436235 36,201.080143 C45.1244773,197.858019 55.8626389,196 67.3555197,196 C100.492605,196 127.35552,211.446176 127.35552,230.5 C127.35552,249.553824 100.492605,265 67.3555197,265 C65.877964,265 64.4128825,264.96929 62.9621006,264.908919 Z" id="Combined-Shape" fill-opacity="0.29" fill="#F68C8C"></path>
                    <path d="M16.7541533,166.5 C114.797123,161.741309 183.542114,147.140452 222.989126,122.697426 C262.436138,98.254401 288.256103,71.8408669 300.449023,43.456824 C243.590368,4.58830468 182.192014,-2.79150496 116.25396,21.3173951 C-6.49080439,66.1965069 16.7541533,166.500033 16.7541533,166.5 Z" id="Path-5" fill="#3F2004"></path>
                    <path d="M118.502831,182.033523 C119.304155,182.011174 120.136544,182 120.999998,182 C121.863453,182 122.695843,182.011174 123.497168,182.033523 L123.497167,182.033558 C132.128182,182.274273 139,189.340416 139,197.974787 L139,197.974787 C139,199.111451 138.078552,200.032899 136.941888,200.032899 C136.346128,200.032899 135.779598,199.774742 135.388711,199.325145 C132.331453,195.808665 127.535209,194.050432 120.999998,194.050432 C114.464788,194.050432 109.668545,195.808664 106.61127,199.325129 L106.611288,199.325145 C105.865506,200.182941 104.565549,200.273745 103.707754,199.527963 C103.258157,199.137076 103,198.570547 103,197.974787 L103,197.974787 C103,189.340417 109.871818,182.274275 118.502832,182.03356 Z" id="Rectangle" fill="#3F2004"></path>
                    <path d="M254.502831,182.033523 C255.304155,182.011174 256.136544,182 256.999998,182 C257.863453,182 258.695843,182.011174 259.497168,182.033523 L259.497167,182.033558 C268.128182,182.274273 275,189.340416 275,197.974787 L275,197.974787 C275,199.111451 274.078552,200.032899 272.941888,200.032899 C272.346128,200.032899 271.779598,199.774742 271.388711,199.325145 C268.331453,195.808665 263.535209,194.050432 256.999998,194.050432 C250.464788,194.050432 245.668545,195.808664 242.61127,199.325129 L242.611288,199.325145 C241.865506,200.182941 240.565549,200.273745 239.707754,199.527963 C239.258157,199.137076 239,198.570547 239,197.974787 L239,197.974787 C239,189.340417 245.871818,182.274275 254.502832,182.03356 Z" id="Rectangle" fill="#3F2004"></path>
                    <path d="M179.911184,265.370455 C182.21797,265.123485 184.747576,265 187.5,265 C190.252424,265 192.78203,265.123485 195.088816,265.370455 L195.088815,265.370462 C205.275197,266.461039 213,275.057023 213,285.301618 L213,285.301618 C213,287.714627 211.04387,289.670756 208.630862,289.670756 C208.365143,289.670756 208.099978,289.646516 207.838663,289.598337 C203.505501,288.799444 196.725949,288.399985 187.5,288.399985 C178.274051,288.399985 171.494499,288.799444 167.161342,289.598361 L167.161337,289.598337 C164.788325,290.035856 162.509939,288.466829 162.07242,286.093817 C162.02424,285.832502 162,285.567337 162,285.301618 L162,285.301618 C162,275.057023 169.724803,266.461039 179.911185,265.370462 Z" id="Rectangle" fill="#F68C8C" transform="translate(187.500000, 277.335763) scale(1, -1) translate(-187.500000, -277.335763) "></path>
                    <path d="M180.249948,224.138478 C182.334615,223.379493 184.584634,223 187.000004,223 C189.415371,223 191.665387,223.379492 193.750052,224.138475 L193.750053,224.138473 C197.502537,225.504675 200.000004,229.071792 200.000004,233.065242 L200.000004,233.993663 C200.000004,236.210125 198.203206,238.006922 195.986744,238.006922 C195.516583,238.006922 195.050078,237.924306 194.608511,237.762844 C191.391805,236.586655 188.855638,235.998548 187.000004,235.998548 C185.144369,235.998548 182.608203,236.586655 179.391505,237.762867 L179.391496,237.762844 C177.309835,238.524021 175.005259,237.453557 174.244082,235.371896 C174.082619,234.930329 174.000004,234.463824 174.000004,233.993663 L174,233.065247 C174,229.071797 176.497465,225.504681 180.249948,224.138478 Z" id="Rectangle" fill="#F8C475"></path>
                </g>
                <g id="Group" transform="translate(189.520939, 117.029232) rotate(12.000000) translate(-189.520939, -117.029232) translate(96.520939, 17.529232)">
                    <path d="M96.3511767,99.3191678 L118.328405,197.904164" id="Line" stroke="#6DF5D8" stroke-width="12" stroke-linecap="square"></path>
                    <path d="M91.0285288,88.7793415 C87.2493484,53.0943883 85.6477502,30.2831652 86.2237342,20.3456722 C87.2322649,2.94542057 101.070479,0.428798644 108.408993,0.776547781 C112.758875,0.982675027 120.322482,4.0681286 123.512219,12.5955422 C124.806679,16.0561378 125.268821,23.2158729 124.898647,34.0747476 C147.79178,22.4700956 162.784322,21.0656308 169.876273,29.8613532 C175.010665,36.2292336 174.070239,48.3012277 154.184535,58.4622065 C140.927399,65.2361924 119.875397,75.3419041 91.0285288,88.7793415 Z" id="Path" fill="url(#linearGradient-2)"></path>
                    <path d="M97.6704064,87.8906312 C58.0965696,90.0602792 32.8278347,90.7114541 21.8642017,89.8441559 C2.66720973,88.3255428 0.368578887,75.7328908 1.00905029,69.1136204 C1.38868777,65.190068 5.06295092,58.4629377 14.59947,55.8781523 C18.4695808,54.8291945 26.3992375,54.6614532 38.38844,55.3749283 C26.3609831,34.282682 25.3318852,20.6857416 35.3011465,14.5841071 C42.5186394,10.1666781 55.8287797,11.4377953 66.3655281,29.7620122 C73.3900271,41.9781567 83.8249865,61.3543631 97.6704064,87.8906312 Z" id="Path" fill="url(#linearGradient-3)"></path>
                    <path d="M87.8107607,86.525508 C127.024874,81.2454683 152.134686,78.6054485 163.140199,78.6054485 C182.41052,78.6054485 185.914215,90.9690362 185.914215,97.6135912 C185.914215,101.552131 182.902364,108.543216 173.651283,111.869698 C169.897009,113.219652 162.013695,114.011658 150.001343,114.245716 C164.016122,134.309867 166.351919,147.773968 157.008733,154.638019 C150.244503,159.607419 136.862488,159.390055 124.599556,141.965924 C116.424268,130.349837 104.161336,111.869698 87.8107607,86.525508 Z" id="Path" fill="url(#linearGradient-4)"></path>
                    <path d="M95.5320036,83.6850491 C93.980584,119.49992 92.1822214,142.287665 90.1369157,152.048286 C86.5556468,169.138839 72.472604,169.819236 65.2539051,168.514907 C60.9750431,167.741771 53.9396051,163.698254 52.0449428,154.840622 C51.2760508,151.246017 51.8806736,144.098956 53.8588111,133.399439 C29.4563943,141.890333 14.3947914,141.318908 8.6740023,131.685163 C4.53229574,124.710576 7.25540558,112.88494 28.4641133,105.429497 C42.6032518,100.459201 64.9592153,93.2110515 95.5320036,83.6850491 Z" id="Path" fill="url(#linearGradient-5)"></path>
                </g>
            </g>
        </g>
    </g>
</svg>